<svg width="29" height="29" viewBox="0 0 29 29" fill="none" xmlns="http://www.w3.org/2000/svg">
<rect x="0.342285" y="0.310059" width="27.8931" height="27.8931" rx="8" fill="#E6E7FF"/>
<path d="M7.31543 9.15814C7.31543 8.71091 7.47249 8.34196 7.7866 8.05127C8.1007 7.76058 8.50906 7.61523 9.01163 7.61523C9.50524 7.61523 9.9046 7.75834 10.2097 8.04456C10.5238 8.33973 10.6809 8.72433 10.6809 9.19839C10.6809 9.62772 10.5283 9.98549 10.2232 10.2717C9.9091 10.5669 9.49626 10.7145 8.98471 10.7145H8.97124C8.47764 10.7145 8.07828 10.5669 7.77313 10.2717C7.46799 9.97655 7.31543 9.60536 7.31543 9.15814ZM7.49043 20.8976V11.9354H10.479V20.8976H7.49043ZM12.1348 20.8976H15.1233V15.8933C15.1233 15.5802 15.1592 15.3387 15.231 15.1688C15.3567 14.8647 15.5474 14.6075 15.8032 14.3973C16.0589 14.1871 16.3798 14.082 16.7657 14.082C17.7709 14.082 18.2734 14.7573 18.2734 16.1079V20.8976H21.262V15.7591C21.262 14.4353 20.9479 13.4313 20.3196 12.7471C19.6914 12.0628 18.8613 11.7207 17.8292 11.7207C16.6715 11.7207 15.7695 12.2171 15.1233 13.2099V13.2368H15.1099L15.1233 13.2099V11.9354H12.1348C12.1527 12.2216 12.1617 13.1116 12.1617 14.6053C12.1617 16.099 12.1527 18.1964 12.1348 20.8976Z" fill="#494187"/>
</svg>
