<svg width="28" height="29" viewBox="0 0 28 29" fill="none" xmlns="http://www.w3.org/2000/svg">
<rect x="0.0522461" y="0.310059" width="27.8931" height="27.8931" rx="8" fill="#E6E7FF"/>
<path fill-rule="evenodd" clip-rule="evenodd" d="M7.02539 14.2565C7.02539 11.4709 7.02539 10.0782 7.68916 9.07499C7.98557 8.62702 8.36921 8.24338 8.81717 7.94697C9.82035 7.2832 11.2131 7.2832 13.9987 7.2832C16.7842 7.2832 18.177 7.2832 19.1801 7.94697C19.6281 8.24338 20.0118 8.62702 20.3082 9.07499C20.9719 10.0782 20.9719 11.4709 20.9719 14.2565V14.2565V14.2565C20.9719 17.042 20.9719 18.4348 20.3082 19.438C20.0118 19.8859 19.6281 20.2696 19.1801 20.566C18.177 21.2297 16.7842 21.2297 13.9987 21.2297H13.9987H13.9986C11.2131 21.2297 9.82035 21.2297 8.81717 20.566C8.36921 20.2696 7.98557 19.8859 7.68916 19.438C7.02539 18.4348 7.02539 17.042 7.02539 14.2565ZM17.6087 14.2566C17.6087 16.2505 15.9924 17.8668 13.9985 17.8668C12.0047 17.8668 10.3884 16.2505 10.3884 14.2566C10.3884 12.2628 12.0047 10.6465 13.9985 10.6465C15.9924 10.6465 17.6087 12.2628 17.6087 14.2566ZM13.9985 16.6454C15.3178 16.6454 16.3873 15.5759 16.3873 14.2566C16.3873 12.9374 15.3178 11.8679 13.9985 11.8679C12.6793 11.8679 11.6098 12.9374 11.6098 14.2566C11.6098 15.5759 12.6793 16.6454 13.9985 16.6454ZM17.7513 11.3134C18.2198 11.3134 18.5995 10.9336 18.5995 10.4651C18.5995 9.99663 18.2198 9.61685 17.7513 9.61685C17.2828 9.61685 16.903 9.99663 16.903 10.4651C16.903 10.9336 17.2828 11.3134 17.7513 11.3134Z" fill="#494187"/>
</svg>
