<svg width="23" height="25" viewBox="0 0 23 25" fill="none" xmlns="http://www.w3.org/2000/svg">
<g clip-path="url(#clip0_1553_586)">
<path d="M10.5718 4.93688C10.5942 4.97431 10.6222 5.00805 10.6548 5.03688C10.6618 5.04288 10.6648 5.05188 10.6718 5.05688L12.3868 6.34288C12.478 6.40828 12.5911 6.43537 12.702 6.41836C12.8129 6.40135 12.9127 6.34159 12.98 6.25188C13.0474 6.16218 13.0769 6.04966 13.0623 5.93844C13.0477 5.82722 12.9901 5.72615 12.9018 5.65688L12.2158 5.14188H13.4998C13.6218 5.14188 16.4998 5.18088 16.4998 8.57288C16.4998 8.68666 16.545 8.79578 16.6255 8.87623C16.7059 8.95668 16.8151 9.00188 16.9288 9.00188C17.0426 9.00188 17.1517 8.95668 17.2322 8.87623C17.3126 8.79578 17.3578 8.68666 17.3578 8.57288C17.4045 8.03401 17.34 7.4913 17.1683 6.9784C16.9965 6.46549 16.7213 5.99334 16.3595 5.5912C15.9978 5.18906 15.5573 4.86552 15.0654 4.64064C14.5735 4.41576 14.0406 4.29433 13.4998 4.28388H12.2148L12.9008 3.76888C12.9891 3.69962 13.0467 3.59855 13.0613 3.48733C13.0759 3.37611 13.0464 3.26359 12.979 3.17388C12.9117 3.08418 12.8119 3.02441 12.701 3.0074C12.5901 2.99039 12.477 3.01749 12.3858 3.08288L10.6708 4.36888C10.6638 4.37388 10.6608 4.38288 10.6538 4.38888C10.6211 4.41771 10.5931 4.45145 10.5708 4.48888C10.5599 4.50288 10.5499 4.51757 10.5408 4.53288C10.5127 4.58871 10.498 4.65036 10.498 4.71288C10.498 4.7754 10.5127 4.83705 10.5408 4.89288C10.5499 4.90818 10.5609 4.92287 10.5718 4.93688Z" fill="white"/>
<path d="M11.8578 21.0601C11.8355 21.0227 11.8075 20.9889 11.7748 20.9601C11.7678 20.9541 11.7648 20.9451 11.7578 20.9401L10.0428 19.6541C9.95168 19.5887 9.83855 19.5616 9.72767 19.5786C9.61679 19.5956 9.51699 19.6554 9.44964 19.7451C9.38229 19.8348 9.35276 19.9473 9.36738 20.0586C9.38199 20.1698 9.43958 20.2709 9.52781 20.3401L10.2138 20.8551H8.92781C8.80581 20.8551 5.92782 20.8161 5.92782 17.4241C5.92782 17.3103 5.88262 17.2012 5.80216 17.1208C5.72171 17.0403 5.61259 16.9951 5.49882 16.9951C5.38504 16.9951 5.27592 17.0403 5.19547 17.1208C5.11501 17.2012 5.06982 17.3103 5.06982 17.4241C5.02329 17.963 5.08795 18.5057 5.2598 19.0185C5.43165 19.5314 5.70702 20.0035 6.06884 20.4055C6.43066 20.8075 6.87121 21.131 7.36317 21.3557C7.85514 21.5805 8.38804 21.7018 8.92882 21.7121H10.2158L9.52982 22.2271C9.48341 22.2604 9.44412 22.3026 9.41425 22.3513C9.38438 22.4 9.36453 22.4542 9.35587 22.5106C9.34721 22.5671 9.34991 22.6247 9.36381 22.6801C9.37771 22.7355 9.40254 22.7876 9.43683 22.8332C9.47112 22.8789 9.51419 22.9173 9.56351 22.9461C9.61282 22.9749 9.6674 22.9936 9.72403 23.001C9.78066 23.0085 9.8382 23.0045 9.89329 22.9894C9.94837 22.9743 9.99989 22.9484 10.0448 22.9131L11.7598 21.6271C11.7668 21.6221 11.7698 21.6131 11.7768 21.6071C11.8493 21.5488 11.8999 21.4675 11.9203 21.3767C11.9406 21.2859 11.9295 21.1908 11.8888 21.1071C11.8798 21.0918 11.8698 21.0771 11.8588 21.0631" fill="white"/>
<path d="M7.4 11.632L5.992 7.784C5.92267 7.61333 5.85067 7.41067 5.776 7.176C5.70133 6.94133 5.62667 6.688 5.552 6.416C5.48267 6.688 5.41067 6.944 5.336 7.184C5.26133 7.41867 5.18933 7.624 5.12 7.8L3.72 11.632H7.4ZM11.2 16H9.536C9.34933 16 9.19733 15.9547 9.08 15.864C8.96267 15.768 8.87467 15.6507 8.816 15.512L7.952 13.152H3.16L2.296 15.512C2.25333 15.6347 2.17067 15.7467 2.048 15.848C1.92533 15.9493 1.77333 16 1.592 16H-0.088L4.464 4.432H6.656L11.2 16Z" fill="white"/>
<path d="M19.952 24.804C19.2373 24.804 18.5387 24.7187 17.856 24.548C17.184 24.3773 16.576 24.1053 16.032 23.732C15.488 23.3693 15.056 22.9 14.736 22.324C14.416 21.748 14.256 21.0547 14.256 20.244C14.256 19.3693 14.432 18.5693 14.784 17.844C15.136 17.108 15.632 16.4573 16.272 15.892C16.912 15.3267 17.6693 14.8573 18.544 14.484C19.4293 14.1 20.3947 13.828 21.44 13.668L21.968 15.78C21.0293 15.9507 20.2133 16.1747 19.52 16.452C18.8373 16.7293 18.272 17.0547 17.824 17.428C17.376 17.8013 17.04 18.2013 16.816 18.628C16.6027 19.0653 16.496 19.524 16.496 20.004C16.496 20.388 16.5653 20.724 16.704 21.012C16.8533 21.3 17.0507 21.54 17.296 21.732C17.5413 21.9347 17.8133 22.0947 18.112 22.212C18.4107 22.34 18.72 22.4307 19.04 22.484C19.36 22.5373 19.664 22.564 19.952 22.564C20.688 22.564 21.3707 22.4947 22 22.356C22.64 22.2173 23.2 22.0467 23.68 21.844L24.32 23.908C24.064 24.036 23.7013 24.1693 23.232 24.308C22.7733 24.4467 22.256 24.564 21.68 24.66C21.1147 24.756 20.5387 24.804 19.952 24.804ZM16.768 15.94C16.3947 15.7907 16.048 15.5773 15.728 15.3C15.4187 15.0227 15.168 14.6813 14.976 14.276C14.7947 13.86 14.704 13.3853 14.704 12.852C14.704 12.18 14.88 11.5987 15.232 11.108C15.584 10.6173 16.0533 10.2387 16.64 9.972C17.2267 9.70533 17.8667 9.572 18.56 9.572C18.9013 9.572 19.216 9.59333 19.504 9.636C19.8027 9.67867 20.1067 9.74267 20.416 9.828L20.064 11.956C19.84 11.9027 19.6107 11.86 19.376 11.828C19.1413 11.796 18.9333 11.78 18.752 11.78C18.3787 11.78 18.0533 11.8333 17.776 11.94C17.5093 12.0467 17.3013 12.2013 17.152 12.404C17.0133 12.596 16.944 12.8253 16.944 13.092C16.944 13.3053 17.008 13.508 17.136 13.7C17.2747 13.892 17.4507 14.0627 17.664 14.212C17.8773 14.3507 18.112 14.468 18.368 14.564C18.624 14.6493 18.8747 14.6973 19.12 14.708L16.768 15.94Z" fill="white"/>
</g>
<defs>
<clipPath id="clip0_1553_586">
<rect width="23" height="24.5" fill="white"/>
</clipPath>
</defs>
</svg>
