<svg width="24" height="22" viewBox="0 0 24 22" fill="none" xmlns="http://www.w3.org/2000/svg">
<path d="M22.5933 5.91443C21.9507 6.57271 21.0727 7.41895 20.047 8.26783C18.957 9.16993 17.6805 10.0914 16.3261 10.7917C14.9793 11.488 13.4933 11.998 12.0013 12C10.5062 12.002 9.01627 11.4938 7.66562 10.7981C6.30741 10.0986 5.02701 9.17661 3.93351 8.27365C2.91617 7.43359 2.04353 6.59574 1.40075 5.93971C1.12001 7.22927 1 8.8778 1 11C1 15.5563 1.56251 17.8696 2.96997 19.1598C3.67341 19.8046 4.67359 20.2733 6.15565 20.5752C7.64457 20.8786 9.55023 21 12 21C14.4498 21 16.3554 20.8786 17.8443 20.5752C19.3264 20.2733 20.3266 19.8046 21.03 19.1598C22.4375 17.8696 23 15.5563 23 11C23 8.8468 22.8744 7.19453 22.5933 5.91443ZM2.16693 3.84272C2.31056 3.99897 2.48697 4.18715 2.69225 4.39925C3.30992 5.03743 4.18301 5.88595 5.20696 6.73147C6.23379 7.57937 7.39263 8.40783 8.58141 9.02013C9.77774 9.63631 10.9425 10.0014 11.9987 10C13.0526 9.99859 14.2146 9.63188 15.4076 9.01507C16.5931 8.40217 17.7484 7.5741 18.7719 6.72705C19.7925 5.88238 20.6626 5.03512 21.2781 4.398C21.4918 4.17673 21.6742 3.98156 21.8206 3.82159C21.594 3.43959 21.3314 3.11645 21.03 2.84022C20.3266 2.1954 19.3264 1.7267 17.8443 1.42477C16.3554 1.12145 14.4498 1 12 1C8.76038 1 6.49183 1.21386 4.88769 1.76179C3.58758 2.20588 2.74172 2.86166 2.16693 3.84272Z" stroke="#61BDCA" stroke-width="2" stroke-linecap="round" stroke-linejoin="round"/>
</svg>
