<svg width="29" height="29" viewBox="0 0 29 29" fill="none" xmlns="http://www.w3.org/2000/svg">
<rect x="0.632324" y="0.310059" width="27.8931" height="27.8931" rx="8" fill="#E6E7FF"/>
<path d="M14.9187 19.6649L11.7713 19.6061C10.7522 19.5856 9.73059 19.6265 8.73151 19.4141C7.21167 19.0968 7.104 17.5411 6.99134 16.2361C6.83609 14.4015 6.89619 12.5336 7.18916 10.7143C7.35454 9.69347 8.00541 9.08434 9.01194 9.01805C12.4097 8.7775 15.8301 8.806 19.2204 8.91823C19.5785 8.92852 19.939 8.98475 20.292 9.04876C22.0348 9.36095 22.0773 11.1239 22.1903 12.6081C22.303 14.1075 22.2554 15.6146 22.0401 17.1038C21.8673 18.3368 21.5368 19.3709 20.1418 19.4707C18.394 19.6012 16.6864 19.7063 14.9337 19.6728C14.9337 19.6649 14.9237 19.6649 14.9187 19.6649ZM13.0683 16.5432C14.3854 15.7704 15.6774 15.0105 16.9869 14.2429C15.6674 13.4701 14.3779 12.7101 13.0683 11.9425V16.5432Z" fill="#494187"/>
</svg>
